<?xml version="1.0" encoding="UTF-8"?>
<!DOCTYPE svg PUBLIC "-//W3C//DTD SVG 1.1//EN" "http://www.w3.org/Graphics/SVG/1.1/DTD/svg11.dtd">
<!-- Creator: CorelDRAW X8 -->
<svg xmlns="http://www.w3.org/2000/svg" xml:space="preserve" width="55.3012mm" height="55.3012mm" version="1.1" style="shape-rendering:geometricPrecision; text-rendering:geometricPrecision; image-rendering:optimizeQuality; fill-rule:evenodd; clip-rule:evenodd"
viewBox="0 0 3404 3404"
 xmlns:xlink="http://www.w3.org/1999/xlink">
 <defs>
  <style type="text/css">
   <![CDATA[
    .fil0 {fill:#009846}
   ]]>
  </style>
 </defs>
 <g id="Capa_x0020_1">
  <metadata id="CorelCorpID_0Corel-Layer"/>
  <path class="fil0" d="M871 2179l0 128 -366 0 0 -521 161 0 0 393 205 0zm831 -2179c-652,0 -1219,367 -1504,906l149 0 0 364c0,56 -5,99 -15,128 -10,30 -30,53 -59,70 -29,17 -68,26 -118,26 -44,0 -83,-5 -119,-14l0 -129c-23,113 -36,231 -36,351 0,940 762,1702 1702,1702 735,0 1361,-466 1599,-1119 -35,20 -76,30 -122,30 -73,0 -133,-24 -179,-73 -46,-48 -69,-113 -69,-195 0,-78 22,-142 66,-193 44,-51 105,-76 184,-76 72,0 132,24 177,72 14,14 25,29 35,46 7,-63 11,-128 11,-194 0,-940 -762,-1702 -1702,-1702zm-557 2315c-74,0 -133,-24 -180,-73 -46,-48 -69,-113 -69,-195 0,-78 22,-142 66,-193 45,-51 106,-76 184,-76 73,0 132,24 178,72 46,48 68,112 68,191 0,83 -23,149 -69,199 -46,50 -105,75 -178,75zm-1 -118c27,0 47,-12 59,-35 12,-24 17,-67 17,-130 0,-91 -24,-136 -73,-136 -53,0 -79,52 -79,155 0,97 25,146 76,146zm717 -12l0 122 -433 0 0 -99 230 -302 -213 0 0 -120 409 0 0 101 -224 298 231 0zm346 122l-28 -102 -142 0 -31 102 -130 0 161 -521 170 0 164 521 -164 0zm-141 -216l83 0 -42 -151 -41 151zm797 216l-130 0 -144 -230c-18,-29 -36,-65 -54,-108 8,34 12,62 12,86l0 252 -129 0 0 -521 151 0 121 191c24,38 43,71 55,100 -8,-44 -12,-90 -12,-137l0 -154 130 0 0 521zm316 -110c27,0 46,-12 58,-35 12,-24 18,-67 18,-130 0,-91 -25,-136 -73,-136 -53,0 -79,52 -79,155 0,97 25,146 76,146zm-3003 -1249c-61,124 -108,256 -138,394 24,7 47,10 68,10 25,0 43,-6 54,-18 10,-11 16,-33 16,-63l0 -323zm736 -42l0 383c0,73 -22,125 -65,157 -43,32 -99,48 -169,48 -73,0 -131,-16 -176,-46 -44,-31 -66,-80 -66,-149l0 -393 180 0 0 372c0,27 6,47 18,60 12,13 31,19 56,19 22,0 40,-4 53,-13 14,-10 22,-20 25,-32 3,-11 4,-34 4,-67l0 -339 140 0zm402 579l-32 -114 -158 0 -34 114 -144 0 179 -579 188 0 182 579 -181 0zm-157 -241l92 0 -46 -167 -46 167zm886 241l-145 0 -159 -256c-21,-32 -41,-72 -61,-120 9,38 14,69 14,95l0 281 -144 0 0 -579 168 0 135 212c27,42 47,79 61,111 -10,-49 -14,-100 -14,-152l0 -171 145 0 0 579z"/>
 </g>
</svg>
