<?xml version="1.0" encoding="UTF-8"?>
<!DOCTYPE svg PUBLIC "-//W3C//DTD SVG 1.1//EN" "http://www.w3.org/Graphics/SVG/1.1/DTD/svg11.dtd">
<!-- Creator: CorelDRAW X8 -->
<?xml-stylesheet href="logo2.css" type="text/css"?>
<svg xmlns="http://www.w3.org/2000/svg" xml:space="preserve" width="210mm" height="150mm" version="1.1" style="shape-rendering:geometricPrecision; text-rendering:geometricPrecision; image-rendering:optimizeQuality; fill-rule:evenodd; clip-rule:evenodd"
viewBox="0 0 21000 15000"
 xmlns:xlink="http://www.w3.org/1999/xlink">
 <g id="Capa_x0020_1">
  <metadata id="CorelCorpID_0Corel-Layer"/>
  <path class="fil0" d="M7423 7906l0 208 -594 0 0 -847 260 0 0 639 334 0zm1350 -3541c-1060,0 -1980,596 -2444,1472l242 0 0 592c0,91 -7,161 -24,208 -16,48 -48,85 -95,113 -47,28 -111,42 -192,42 -72,0 -136,-8 -193,-23l0 -208c-39,183 -59,374 -59,569 0,1528 1238,2765 2765,2765 1194,0 2212,-757 2598,-1817 -57,32 -123,49 -198,49 -119,0 -216,-40 -292,-119 -75,-79 -112,-185 -112,-317 0,-126 36,-231 108,-313 71,-83 171,-124 298,-124 118,0 215,39 289,117 22,23 41,48 56,75 12,-103 18,-209 18,-316 0,-1527 -1238,-2765 -2765,-2765zm-905 3762c-119,0 -217,-40 -292,-119 -75,-79 -112,-185 -112,-317 0,-126 36,-231 107,-313 72,-83 172,-124 299,-124 118,0 214,39 289,117 74,77 111,181 111,311 0,134 -37,242 -112,323 -75,81 -172,122 -290,122zm-1 -192c44,0 75,-20 95,-58 19,-38 29,-108 29,-210 0,-148 -40,-221 -119,-221 -86,0 -129,84 -129,252 0,158 41,237 124,237zm1164 -21l0 200 -704 0 0 -161 374 -491 -346 0 0 -195 664 0 0 164 -364 483 376 0zm563 200l-47 -167 -230 0 -50 167 -211 0 262 -847 275 0 266 847 -265 0zm-230 -352l135 0 -68 -245 -67 245zm1296 352l-212 0 -233 -374c-30,-48 -60,-106 -89,-176 14,55 21,101 21,139l0 411 -211 0 0 -847 245 0 197 310c40,62 69,116 89,163 -13,-73 -19,-147 -19,-222l0 -251 212 0 0 847zm512 -179c44,0 76,-20 95,-58 19,-38 29,-108 29,-210 0,-148 -40,-221 -119,-221 -86,0 -129,84 -129,252 0,158 42,237 124,237zm-4878 -2029c-100,200 -176,415 -224,640 39,11 76,16 109,16 42,0 71,-10 88,-29 18,-19 27,-53 27,-103l0 -524zm1195 -69l0 623c0,118 -35,203 -105,254 -70,52 -162,78 -274,78 -119,0 -214,-25 -286,-75 -72,-49 -108,-130 -108,-242l0 -638 293 0 0 604c0,45 10,78 29,98 19,21 50,31 92,31 34,0 63,-7 85,-22 23,-15 36,-32 40,-51 5,-19 7,-55 7,-110l0 -550 227 0zm654 941l-52 -185 -256 0 -56 185 -234 0 291 -941 305 0 296 941 -294 0zm-256 -391l151 0 -76 -273 -75 273zm1440 391l-236 0 -258 -415c-34,-54 -67,-119 -99,-196 15,61 23,112 23,155l0 456 -234 0 0 -941 272 0 219 344c44,69 77,129 99,181 -14,-80 -22,-162 -22,-247l0 -278 236 0 0 941z"/>
 </g>
</svg>
